<?xml version="1.0" encoding="utf-8"?>
<!-- Generator: Adobe Illustrator 24.0.1, SVG Export Plug-In . SVG Version: 6.00 Build 0)  -->
<svg version="1.1" id="Layer_1" xmlns="http://www.w3.org/2000/svg" xmlns:xlink="http://www.w3.org/1999/xlink" x="0px" y="0px"
	 viewBox="0 0 181.9 7.2" style="enable-background:new 0 0 181.9 7.2;" xml:space="preserve">
<g>
	<path d="M91,5.6c1.3-1.8,4.7-1.9,5.7-1.9c0,0,1.3,1.8,4.9,1.8c3.3,0,11.4-0.3,17.1-0.5c8-0.2,48.7-1.3,62.2-1.3V3.5
		c-13.5,0-54.2-1.1-62.2-1.3C113,2,104.8,1.7,101.6,1.7c-3.6,0-4.9,1.8-4.9,1.8c-1.1,0-4.4-0.1-5.7-1.9c-1.3,1.8-4.7,1.9-5.7,1.9
		c0,0-1.3-1.8-4.9-1.8C77.1,1.7,69,2,63.2,2.1c-8,0.2-48.7,1.3-62.2,1.3v0.3c13.5,0,54.2,1.1,62.2,1.3C69,5.2,77.1,5.5,80.4,5.5
		c3.6,0,4.9-1.8,4.9-1.8C86.3,3.7,89.6,3.8,91,5.6z"/>
</g>
</svg>
