<?xml version="1.0" encoding="utf-8"?>
<!-- Generator: Adobe Illustrator 24.0.1, SVG Export Plug-In . SVG Version: 6.00 Build 0)  -->
<svg version="1.1" id="Layer_1" xmlns="http://www.w3.org/2000/svg" xmlns:xlink="http://www.w3.org/1999/xlink" x="0px" y="0px"
	 viewBox="0 0 61.1 6.5" style="enable-background:new 0 0 61.1 6.5;" xml:space="preserve">
<g>
	<path d="M1,3.1c2.2,0,7.8,0,15-0.8c4.1-0.5,6-0.9,7.5-1.4c0.6-0.2,0.7-0.3,1.3,0c1.8,0.8,3.2,1.4,4.5,1.9c0.7,0.3,0.8,0.3,0.8,0.5
		c0,0.2-0.1,0.2-0.8,0.5c-1.4,0.5-2.8,1.1-4.5,1.9c-0.5,0.3-0.7,0.2-1.3,0c-1.5-0.5-3.4-0.9-7.5-1.4C8.8,3.4,3.2,3.4,1,3.4
		C0.2,3.4,0.2,3.1,1,3.1z"/>
	<path d="M60.1,3.1c-2.2,0-7.8,0-15-0.8c-4.1-0.5-6-0.9-7.5-1.4c-0.6-0.2-0.7-0.3-1.3,0c-1.8,0.8-3.2,1.4-4.5,1.9
		C31,3,31,3.1,31,3.2c0,0.2,0.1,0.2,0.8,0.5c1.4,0.5,2.8,1.1,4.5,1.9c0.5,0.3,0.7,0.2,1.3,0C39,5.1,41,4.7,45.1,4.3
		c7.2-0.9,12.8-0.8,15-0.8C60.9,3.4,60.9,3.1,60.1,3.1z"/>
</g>
</svg>
