<?xml version="1.0" encoding="UTF-8"?> <svg xmlns="http://www.w3.org/2000/svg" xmlns:xlink="http://www.w3.org/1999/xlink" id="Group_56" data-name="Group 56" width="77" height="77" viewBox="0 0 77 77"><path id="Path_498" data-name="Path 498" d="M74.15,59.52A14.628,14.628,0,0,1,59.52,74.15,58.519,58.519,0,0,1,1,15.63,14.625,14.625,0,0,1,18.059,1.2c.123.021.248.042.372.065a3.544,3.544,0,0,1,2.832,2.891l3.7,21.749a1.171,1.171,0,0,1-.641,1.247s-3.54,1.7-5.274,2.553a1.166,1.166,0,0,0-.579,1.45A43.987,43.987,0,0,0,43.935,56.667a1.168,1.168,0,0,0,1.45-.57c.876-1.723,2.6-5.276,2.6-5.276a1.171,1.171,0,0,1,1.244-.629l21.756,3.7a3.544,3.544,0,0,1,2.891,2.832c.023.123.044.248.065.372A14.671,14.671,0,0,1,74.15,59.52Z" transform="translate(0.925 0.925)" fill="none" stroke="#fff" stroke-miterlimit="10" stroke-width="3"></path></svg> 