<?xml version="1.0" encoding="UTF-8"?> <svg xmlns="http://www.w3.org/2000/svg" xmlns:xlink="http://www.w3.org/1999/xlink" width="90.79" height="90.463" viewBox="0 0 90.79 90.463"><defs><clipPath id="a"><rect width="90.79" height="90.463" fill="none" stroke="#2c6773" stroke-width="4"></rect></clipPath></defs><g clip-path="url(#a)"><path d="M43.887,28.7H.5V20.446L43.887.5,88.539,20.446V28.7Z" transform="translate(0.876 0.875)" fill="none" stroke="#2c6773" stroke-linejoin="round" stroke-width="4"></path><path d="M81.785,37.511V29.452H2v8.058" transform="translate(3.502 51.577)" fill="none" stroke="#2c6773" stroke-linejoin="round" stroke-width="4"></path></g><line y1="35.136" transform="translate(11.725 37.875)" fill="none" stroke="#2c6773" stroke-linejoin="round" stroke-width="4"></line><line y1="35.136" transform="translate(22.73 37.875)" fill="none" stroke="#2c6773" stroke-linejoin="round" stroke-width="4"></line><line y1="35.136" transform="translate(79.065 37.875)" fill="none" stroke="#2c6773" stroke-linejoin="round" stroke-width="4"></line><line y1="35.136" transform="translate(68.06 37.875)" fill="none" stroke="#2c6773" stroke-linejoin="round" stroke-width="4"></line><g clip-path="url(#a)"><path d="M13.841,32.606c0,3.191,3.007,5.778,6.713,5.778S27.27,35.8,27.27,32.606s-3.007-5.778-6.716-5.778c-3.541,0-6.41-2.388-6.41-5.335s2.87-5.332,6.41-5.332,6.413,2.388,6.413,5.332" transform="translate(24.239 28.303)" fill="none" stroke="#2c6773" stroke-linejoin="round" stroke-width="4"></path><line y2="3.934" transform="translate(44.794 40.532)" fill="none" stroke="#2c6773" stroke-linejoin="round" stroke-width="4"></line><line y2="3.934" transform="translate(44.794 66.687)" fill="none" stroke="#2c6773" stroke-linejoin="round" stroke-width="4"></line><rect width="16.114" height="8.298" transform="translate(9.173 29.576)" fill="none" stroke="#2c6773" stroke-linejoin="round" stroke-width="4"></rect><rect width="16.114" height="8.298" transform="translate(9.173 72.731)" fill="none" stroke="#2c6773" stroke-linejoin="round" stroke-width="4"></rect><rect width="16.114" height="8.298" transform="translate(65.506 29.576)" fill="none" stroke="#2c6773" stroke-linejoin="round" stroke-width="4"></rect><rect width="16.114" height="8.298" transform="translate(65.506 72.731)" fill="none" stroke="#2c6773" stroke-linejoin="round" stroke-width="4"></rect><line x2="88.039" transform="translate(1.376 89.087)" fill="none" stroke="#2c6773" stroke-linejoin="round" stroke-width="4"></line><circle cx="5.502" cy="5.502" r="5.502" transform="translate(39.893 11.226)" fill="none" stroke="#2c6773" stroke-linejoin="round" stroke-width="4"></circle></g></svg> 