<?xml version="1.0" encoding="UTF-8"?> <svg xmlns="http://www.w3.org/2000/svg" xmlns:xlink="http://www.w3.org/1999/xlink" width="98.276" height="90" viewBox="0 0 98.276 90"><defs><clipPath id="a"><rect width="98.276" height="90" fill="none" stroke="#2c6773" stroke-width="4"></rect></clipPath></defs><g transform="translate(0 0)" clip-path="url(#a)"><path d="M9.2,3.387l2.427.56A45.622,45.622,0,0,1,25.416,9.784" transform="translate(45.462 6.701)" fill="none" stroke="#2c6773" stroke-linejoin="round" stroke-width="4"></path><path d="M29.983,3.8C12.8,8.983.5,23.278.5,40.1a35.511,35.511,0,0,0,9.887,24.3l1.161,9.679a7.829,7.829,0,0,0,10.6,6.373,8.2,8.2,0,0,0,4.824-5.629l.3-1.1H55.267l.328,1.161a8.236,8.236,0,0,0,5.48,5.777,8.021,8.021,0,0,0,10.215-6.343l.864-4.676L84.66,57.912h5.182A5.954,5.954,0,0,0,95.8,51.956V32l-4.05.953a3.042,3.042,0,0,1-3.187-1.281L78.793,16.547l-.009.027,4.789-9A2.332,2.332,0,0,0,81.3,4.164c-6.829.736-12.4,4.095-16.376,10.769" transform="translate(0.989 7.52)" fill="none" stroke="#2c6773" stroke-linejoin="round" stroke-width="4"></path><circle cx="4.074" cy="4.074" r="4.074" transform="translate(68.223 35.228)" fill="none" stroke="#2c6773" stroke-miterlimit="10" stroke-width="4"></circle><line y1="5.054" transform="translate(56.273 76.208)" fill="none" stroke="#2c6773" stroke-linejoin="round" stroke-width="4"></line><line y1="5.054" transform="translate(28.31 76.208)" fill="none" stroke="#2c6773" stroke-linejoin="round" stroke-width="4"></line><path d="M16.627,19.047A11.953,11.953,0,0,1,26.547.5a11.9,11.9,0,0,1,11.9,11.906,12.036,12.036,0,0,1-1.983,6.641Z" transform="translate(16.215 0.99)" fill="none" stroke="#2c6773" stroke-linejoin="round" stroke-width="4"></path><line x1="28.902" transform="translate(28.31 20.037)" fill="none" stroke="#2c6773" stroke-linejoin="round" stroke-width="4"></line></g></svg> 