<?xml version="1.0" encoding="UTF-8"?> <svg xmlns="http://www.w3.org/2000/svg" xmlns:xlink="http://www.w3.org/1999/xlink" width="94.918" height="90" viewBox="0 0 94.918 90"><defs><clipPath id="a"><rect width="94.918" height="90" fill="none" stroke="#2c6773" stroke-width="4"></rect></clipPath></defs><g transform="translate(0 0)" clip-path="url(#a)"><path d="M35.609,31.632H56.491A5.952,5.952,0,0,0,62.4,26.377c.414-3.572-2.638-6.636-6.221-6.909L27.458,17.291a11.506,11.506,0,0,0-9.641,4.024L10.8,29.575" transform="translate(1.4 32.379)" fill="none" stroke="#2c6773" stroke-linejoin="round" stroke-width="4"></path><path d="M39.161,30.067,58.59,15.981c2.767-2.008,6.992-1.631,9.014,1.125a6.26,6.26,0,0,1-1,8.433L44.976,43.87a11.047,11.047,0,0,1-7.1,2.577H6.581a2.772,2.772,0,0,0-1.884.739l-4.2,3.9" transform="translate(24.685 27.605)" fill="none" stroke="#2c6773" stroke-linejoin="round" stroke-width="4"></path><path d="M41.39,50.282l8.166-6.8L31.579,20.4,23.41,27.2Z" transform="translate(-21.973 38.28)" fill="none" stroke="#2c6773" stroke-linejoin="round" stroke-width="4"></path><path d="M62.852,44.979A30.9,30.9,0,1,0,9.557,48.8" transform="translate(16.876 0.937)" fill="none" stroke="#2c6773" stroke-linejoin="round" stroke-width="4"></path><path d="M15.106,5.338h0C15.106,2.39,12.4,0,9.063,0H6.043C2.707,0,0,2.39,0,5.338s2.707,5.338,6.043,5.338h3.02c3.337,0,6.043,2.39,6.043,5.336S12.4,21.351,9.063,21.351H6.043C2.707,21.351,0,18.961,0,16.012" transform="translate(44.413 19.221)" fill="none" stroke="#2c6773" stroke-linecap="square" stroke-linejoin="round" stroke-width="4"></path><line y2="3.535" transform="translate(51.967 40.811)" fill="none" stroke="#2c6773" stroke-linecap="square" stroke-linejoin="round" stroke-width="4"></line><line y2="3.535" transform="translate(51.967 15.379)" fill="none" stroke="#2c6773" stroke-linecap="square" stroke-linejoin="round" stroke-width="4"></line></g></svg> 