<?xml version="1.0" encoding="UTF-8"?> <!-- Generator: Adobe Illustrator 24.0.1, SVG Export Plug-In . SVG Version: 6.00 Build 0) --> <svg xmlns="http://www.w3.org/2000/svg" xmlns:xlink="http://www.w3.org/1999/xlink" version="1.1" id="Isolation_Mode" x="0px" y="0px" viewBox="0 0 787 235" style="enable-background:new 0 0 787 235;" xml:space="preserve"> <style type="text/css"> .st0{fill:#FFFFFF;} </style> <g> <g> <g> <path class="st0" d="M180.8,225.4c-5.4-1.1-10-2.1-14.6-3.1c-13.7-2.9-27.4-5.8-41.1-8.8c-1.1-0.2-2.9-1.2-2.9-1.9 c-0.1-2.1-0.1-4.9,1.1-6.2c2.8-2.7,3.9-5.7,3.5-9.1c-1.6-12.8-6.5-24.6-12.8-36.2c-0.8,0.9-1.3,1.4-1.6,2.1 c-5.3,9.9-9.3,20.3-11.4,31.4c-0.8,4.5-0.6,8.6,3.4,12c1.2,1.1,1,4.1,0.9,6.3c0,0.6-1.8,1.4-2.8,1.6 c-17.5,3.8-34.9,7.5-52.4,11.2c-0.9,0.2-1.8,0.2-2.7,0.3c-0.6-3.2-0.7-5.9,1.8-8.5c3.2-3.4,3.1-7.8,2.3-12.2 c-6.1-32.2-12.1-64.4-18.2-96.6c-4.4-23.5-8.8-47.1-13.4-70.6c-0.7-3.6-1.6-7.3-2.9-10.8C14.8,20.4,10.8,16,4.6,14.2 C1.9,13.3,2,11.7,1.9,9.6c0-2.3,0.1-4,2.8-4.9c9-3.3,17.8-3.3,26.3,1c5,2.5,9.8,5.6,14.6,8.5C52,18,58.3,21.8,66,22.6 c0.4,3.5,1,6.5-2.2,9.2c-2.9,2.5-2.6,6.3-2.1,9.9c3.6,23.7,7.2,47.4,10.7,71c1.9,12.4,3.8,24.8,5.6,37.2c0.2,1.1,0.4,2.2,0.7,3.9 c0.9-1.2,1.4-1.9,1.8-2.6c4.4-7.2,8.7-14.5,13.2-21.7c1.1-1.8,1.2-3,0.2-4.9c-7-13-13.4-26.2-15.4-41c-0.6-4.8-0.9-9.7-0.4-14.5 c2-19.5,20.7-27.8,35.1-16.8c3.1-1.4,6.1-3.3,9.3-4.1c10.8-2.8,21.2,3.2,25,14c2.7,7.6,2.2,15.4,0.9,23.1 c-2.3,13.8-8.1,26.3-14.7,38.4c-1.4,2.5-1.3,4.2,0.3,6.7c4.9,7.5,9.4,15.1,14.3,23.2c0.3-1.1,0.7-1.8,0.8-2.6 c5.5-36.5,11.1-73,16.6-109.6c0.6-4.2,0-7.9-3.3-11.2c-1.3-1.3-1.1-4.3-1.1-6.5c0-0.5,2.1-1,3.2-1.6c6.6-3.2,13.2-6.3,19.7-9.6 c4.3-2.2,8.3-5,12.7-7.1c8.6-4.2,17.4-3.9,26.3-0.5c2.9,1.1,2,3.3,2.2,5.3c0.2,1.8-0.1,3.1-2.3,3.8c-7.1,2.2-11.6,7.3-13.3,14.2 c-2.6,10.6-4.7,21.4-6.7,32.2c-9,47.4-17.9,94.8-26.9,142.2c-1.1,5.8-1.2,11.1,3.3,15.8C180.9,219.7,180.4,222.6,180.8,225.4z M113.7,99.5c3.4-5,5.7-9.8,6.1-15.3c0.1-1.7-0.4-4-1.6-5.1c-0.8-0.7-3.1,0.2-5.3,0.5c-3.1-2-5.5-1.1-5.5,2.9 C107.6,88.7,110,94.1,113.7,99.5z"></path> <path class="st0" d="M661.4,108.4c-4.1,3.8-7.7,8.1-12.2,10.9c-4.8,3.1-6.5,6.7-7.2,12.2c-1.7,14.7-6.5,28.3-15.7,40.3 c-12.3,16-31.6,22.9-49.9,17.4c-11.1-3.3-18.7-10.8-23.8-20.9c-6.2-12.1-7.7-25.2-7-38.6c1-18.9,5.3-36.7,17.4-51.9 c8.4-10.5,19-17.3,32.7-18.4c18-1.4,31.4,5.8,40,21.6c0.7,1.3,1.3,2.6,1.9,4c0.6,1.2,1,2.5,2,4.7c3.9-4.1,8-7.4,10.7-11.5 c3.2-5.1,5.4-10.8,7.8-16.4c0.7-1.5,0.8-2.8,3-2.8c13.8,0.1,27.6,0,42.4,0c-5.2,8-9,16-9.7,25c-0.8,9-0.1,17.8,2.8,26.7 c1-0.5,1.7-0.7,2.3-1.2c5.5-4.5,11.3-8.8,16.3-13.8c3-3,5.4-7,6.9-11c2.3-6.2-0.9-10.3-7.5-11c-2-0.2-4-0.3-6.1-0.5 c2.1-9,12.8-18.3,22.7-19.8c11.2-1.7,20.8,1.3,27.5,10.7c6.6,9.2,7.1,19.4,1.7,29.1c-3,5.5-7.1,10.9-11.8,15.1 c-8.4,7.3-17.7,13.7-26.6,20.4c-4.2,3.1-8.6,5.8-13.3,9c13.3,21.7,31.8,37.8,52.4,53.2c-1.6,0.1-2.4,0.1-3.1,0.1 c-15.6,0-31.2,0.1-46.9-0.1c-1.6,0-3.8-1-4.8-2.2c-6.6-8.5-12.9-17.1-19.4-25.7c-0.7-1-1.4-2-2.3-3.4 c-7.4,10.1-7.6,20.3-2.3,30.8c-0.4,0.3-0.5,0.6-0.7,0.6c-11.9-0.1-23.8,0.1-35.6-0.5c-7.1-0.4-11.3-5.9-10.2-12.9 c0.6-4,2-8.2,3.8-11.8c6.5-12.7,16.2-22.8,27-31.9c2.5-2.1,2.7-3.6,1.5-6.5C665.7,121.2,663.7,114.8,661.4,108.4z M590.5,113.5 c1.3-0.4,2.8-0.7,4.1-1.1c6.4-2.1,11.2-8.4,10.9-15.1c-0.1-2.1-1.2-4.7-2.8-6c-2.1-1.8-5.1-1.3-7.2,0.5c-2.3,1.9-4.7,4.1-6,6.8 c-8.5,16.9-9.9,34.7-5.7,53c0.8,3.7,2.3,7.8,6.9,8.3c4.6,0.4,7.2-3.3,8.8-6.9c2.3-5.4,3.9-11,5.8-16.6c0.9-2.7,0-3.9-2.7-4.9 C594.9,128.4,590.1,121,590.5,113.5z"></path> <path class="st0" d="M488.8,63.4c2.7-3.1,5.3-5.4,6.9-8.3c3.1-5.7,1.7-13-2.8-18c-3.9-4.2-10.8-5.7-16.6-3.5 c-5.7,2.2-9.8,8.1-10,14.5c-0.3,9.3,3.5,17.1,9.8,23.4c6.2,6.2,13.2,11.7,19.7,17.6c8.7,7.8,18,14.9,25.7,23.5 c36.9,41.4,16.5,105.6-37.6,118.1c-22.7,5.3-44.5,2.5-63.5-12c-24.5-18.7-28.3-53.6-8.7-76.8c11.4-13.4,32.2-18.7,47.1-11.8 c10.3,4.8,16.6,12.6,16.8,24.2c0.3,11.6-5.6,20-15.5,25.5c-3.4,1.9-7.3,3-11.7,4.9c0.7-2.6,1.2-4.4,1.6-6.2 c1.2-4.9-0.5-9.5-4.1-10.6c-4.5-1.4-9,1.3-10.7,6.4c-2.6,7.7,2.1,17.9,10.3,22.3c17.2,9.3,39.4,0.7,46.4-18.1 c5.8-15.5,2.2-29.5-8.7-41.1c-7.6-8.1-16.7-14.8-25-22.3c-7.1-6.4-14.7-12.4-21.1-19.6C409.4,64,424.6,15,465.4,4.3 c17.5-4.6,34.7-3.6,50.7,5.4c13.8,7.7,22.1,19.4,21.4,35.8c-1,25.4-26.8,32-41.7,23.3C493.2,67.3,491,65.2,488.8,63.4z"></path> <path class="st0" d="M298.1,100c4.2-1.7,8.7-3.2,12.9-5.2c1.2-0.6,2.1-2.3,2.8-3.6c6.1-12.1,14.1-22.4,26.9-28 c20.6-8.9,45.2-3,55.5,21c1.1,2.6,2.1,5.2,3.3,8.2c9-4.2,11.4-12.7,14.1-21.4c11.5,17.6,10.6,36.5-0.8,48 c-2.5,2.5-5.6,4.6-8.6,6.5c-1.7,1.1-2.5,2.2-2.7,4.2c-2,15.2-6.4,29.5-15.9,42c-12.2,16-31.2,23-49.2,17.9 c-11.1-3.1-18.9-10.3-24.2-20.4c-5.9-11.1-7.6-23.1-7.6-35.4c0-1.3,0-2.7,0-4.3c-2.1,0.6-4.1,0.7-5.5,1.6c-1,0.6-1.7,2.2-1.9,3.4 c-2.7,14.6-7.4,28.2-17.1,39.7c-12.2,14.5-30.8,20.4-48.3,15.1c-10.9-3.3-18.5-10.7-23.6-20.6c-5.5-10.7-7.4-22.3-7.2-34.2 c0.3-20.2,4.2-39.4,16.9-55.8c12.1-15.6,27.9-22.3,47.5-18.2c12.3,2.6,20.9,10.5,26.2,21.7C294,87.5,295.7,93.3,298.1,100z M245.8,113.5c1.3-0.4,2.8-0.7,4.1-1.1c6.3-2,11.1-8.2,10.9-14.8c-0.1-2.2-1.2-5-2.8-6.4c-2.3-1.9-5.5-1.2-7.8,0.9 c-2.1,1.9-4.2,3.9-5.4,6.4c-8.5,17.1-9.9,35-5.6,53.4c0.8,3.6,2.4,7.5,6.8,8c4.5,0.4,7.1-3.1,8.6-6.6c2.4-5.4,4-11.2,6-16.8 c1-2.7,0-3.9-2.7-4.9C250.2,128.4,245.4,121,245.8,113.5z M349.6,113.5c1.3-0.4,2.8-0.7,4.1-1.1c6.4-2.1,11.3-8.5,10.9-15.1 c-0.1-2.1-1.3-4.7-2.8-6c-2.1-1.8-5.2-1.3-7.2,0.5c-2.3,2-4.7,4.2-6,6.8c-8.5,17-9.9,35-5.6,53.4c0.8,3.6,2.4,7.5,6.8,7.9 c4.3,0.4,6.9-2.9,8.4-6.3c2.4-5.4,4.1-11.2,6.1-16.8c0.9-2.6,0.5-4.1-2.6-5.3C353.9,128.4,349.1,120.9,349.6,113.5z"></path> <path class="st0" d="M782.8,62.8c-0.8,1.8-1.6,3.6-2.8,6.3c-1.2-2.4-2-4.2-3.3-6.8c-0.3,2.6-0.6,4.3-0.8,6c-0.3,0-0.7,0-1,0 c0-2.7,0-5.3,0.1-8c0-0.3,0.8-1,1.1-0.9c0.6,0.1,1.3,0.5,1.5,1c0.8,1.5,1.4,3.2,2.5,5.7c1-2.5,1.5-4,2.3-5.5 c0.3-0.6,1.1-0.9,1.7-1.3c0.4,0.6,1,1.2,1,1.8c0.1,2.4,0.1,4.8,0.1,7.2c-0.4,0-0.8,0-1.1,0.1c-0.2-1.7-0.4-3.5-0.6-5.2 C783.1,62.9,783,62.9,782.8,62.8z"></path> <path class="st0" d="M768.5,68.2c0-1.6,0.2-3.3-0.1-4.9c-0.2-1.3-1.1-2.5-1.7-3.8c1.5,0,3.6,0,5.7,0 C767.5,61.1,771.5,65.7,768.5,68.2z"></path> </g> </g> </g> </svg> 